<svg width="64" height="64" viewBox="0 0 64 64" fill="none" xmlns="http://www.w3.org/2000/svg">
<rect width="64" height="64" rx="8" fill="#8CFADC"/>
<path fill-rule="evenodd" clip-rule="evenodd" d="M8 0C5.79086 0 4 1.79086 4 4V20C4 22.2091 5.79086 24 8 24H24C26.2091 24 28 22.2091 28 20V4C28 1.79086 26.2091 0 24 0H8ZM24 4H8V20H24V4Z" transform="translate(16 18)" fill="#1EB482"/>
<path d="M20 4C20 6.20914 18.2091 8 16 8C13.7909 8 12 6.20914 12 4C12 1.79086 13.7909 0 16 0C18.2091 0 20 1.79086 20 4Z" transform="translate(16 18)" fill="#1EB482"/>
<path d="M28 4C28 6.20914 26.2091 8 24 8C21.7909 8 20 6.20914 20 4C20 1.79086 21.7909 0 24 0C26.2091 0 28 1.79086 28 4Z" transform="translate(16 18)" fill="#1EB482"/>
<path d="M12 4C12 6.20914 10.2091 8 8 8C5.79086 8 4 6.20914 4 4C4 1.79086 5.79086 0 8 0C10.2091 0 12 1.79086 12 4Z" transform="translate(16 18)" fill="#1EB482"/>
<path d="M0 20H32V26C32 27.1046 31.1046 28 30 28H2C0.895431 28 0 27.1046 0 26V20Z" transform="translate(16 18)" fill="#1EB482"/>
<path d="M4 20H28V24H4V20Z" transform="translate(16 18)" fill="#1EB482"/>
<path d="M32 20H0L4 16H28L32 20Z" transform="translate(16 18)" fill="#1EB482"/>
</svg>
