<svg width="64" height="64" viewBox="0 0 64 64" fill="none" xmlns="http://www.w3.org/2000/svg">
<rect width="64" height="64" rx="8" fill="#F07864"/>
<path d="M4 4V2C4 0.895508 4.89543 0 6 0C7.10457 0 8 0.895508 8 2V8H2C0.895432 8 0 7.10449 0 6C0 4.89551 0.895432 4 2 4H4Z" transform="translate(16 16)" fill="#AB1F1F"/>
<path d="M4 28H2C0.895432 28 0 27.1045 0 26C0 24.8955 0.895432 24 2 24H8V30C8 31.1045 7.10457 32 6 32C4.89543 32 4 31.1045 4 30V28Z" transform="translate(16 16)" fill="#AB1F1F"/>
<path d="M30 24H24V30C24 31.1045 24.8954 32 26 32C27.1046 32 28 31.1045 28 30V28H30C31.1046 28 32 27.1045 32 26C32 24.8955 31.1046 24 30 24Z" transform="translate(16 16)" fill="#AB1F1F"/>
<path d="M24 8V2C24 0.895508 24.8954 0 26 0C27.1046 0 28 0.895508 28 2V4H30C31.1046 4 32 4.89551 32 6C32 7.10449 31.1046 8 30 8H24Z" transform="translate(16 16)" fill="#AB1F1F"/>
<path d="M8 16C8 11.5817 11.5817 8 16 8C20.4183 8 24 11.5817 24 16C24 20.4183 20.4183 24 16 24C11.5817 24 8 20.4183 8 16Z" transform="translate(16 16)" fill="#AB1F1F"/>
</svg>
